<?xml version="1.0" encoding="UTF-8" standalone="no"?>
<!-- Created with Inkscape (http://www.inkscape.org/) -->
<svg
   xmlns:dc="http://purl.org/dc/elements/1.1/"
   xmlns:cc="http://web.resource.org/cc/"
   xmlns:rdf="http://www.w3.org/1999/02/22-rdf-syntax-ns#"
   xmlns:svg="http://www.w3.org/2000/svg"
   xmlns="http://www.w3.org/2000/svg"
   xmlns:sodipodi="http://sodipodi.sourceforge.net/DTD/sodipodi-0.dtd"
   xmlns:inkscape="http://www.inkscape.org/namespaces/inkscape"
   width="500"
   height="150"
   id="svg2"
   sodipodi:version="0.32"
   inkscape:version="0.45.1"
   sodipodi:docbase="D:\Grigory\Doc`и\Оригами\Вики"
   sodipodi:docname="orisymbol_cut.svg"
   inkscape:output_extension="org.inkscape.output.svg.inkscape"
   version="1.0">
  <defs
     id="defs4" />
  <sodipodi:namedview
     id="base"
     pagecolor="#ffffff"
     bordercolor="#666666"
     borderopacity="1.0"
     gridtolerance="1.7"
     guidetolerance="10"
     objecttolerance="10"
     inkscape:pageopacity="0.0"
     inkscape:pageshadow="2"
     inkscape:zoom="22.132442"
     inkscape:cx="182.99313"
     inkscape:cy="124.75931"
     inkscape:document-units="px"
     inkscape:current-layer="layer1"
     showgrid="true"
     inkscape:window-width="1024"
     inkscape:window-height="712"
     inkscape:window-x="-4"
     inkscape:window-y="-4"
     width="500px"
     height="150px"
     showborder="true"
     inkscape:grid-points="true"
     inkscape:grid-bbox="true"
     showguides="true"
     inkscape:guide-bbox="true" />
  <metadata
     id="metadata7">
    <rdf:RDF>
      <cc:Work
         rdf:about="">
        <dc:format>image/svg+xml</dc:format>
        <dc:type
           rdf:resource="http://purl.org/dc/dcmitype/StillImage" />
      </cc:Work>
    </rdf:RDF>
  </metadata>
  <g
     inkscape:label="Layer 1"
     inkscape:groupmode="layer"
     id="layer1">
    <path
       style="fill:#ffffc9;fill-opacity:1;fill-rule:evenodd;stroke:#000000;stroke-width:1px;stroke-linecap:butt;stroke-linejoin:miter;stroke-opacity:1"
       d="M 180,135 L 300,135 L 300,15 L 180,15 L 180,135 z "
       id="path2167" />
    <path
       style="fill:#ffffc9;fill-opacity:1;fill-rule:evenodd;stroke:#000000;stroke-width:1px;stroke-linecap:butt;stroke-linejoin:miter;stroke-opacity:1"
       d="M 340,135 L 460,135 L 460,15 L 340,15 L 340,70 L 400,75 L 340,80 L 340,135 z "
       id="path2170"
       sodipodi:nodetypes="cccccccc" />
    <path
       style="fill:none;fill-rule:evenodd;stroke:#000000;stroke-width:1px;stroke-linecap:butt;stroke-linejoin:miter;stroke-opacity:1"
       d="M 180,75 L 240,75"
       id="path2174" />
    <path
       style="fill:none;fill-rule:evenodd;stroke:#000000;stroke-width:1;stroke-linecap:butt;stroke-linejoin:miter;stroke-miterlimit:10;stroke-dasharray:none;stroke-opacity:1"
       d="M 148.78544,78.524099 C 148.78544,78.524099 150.92425,80.485285 148.78544,81.792743 C 147.27307,82.717255 146.11193,80.485285 147.71604,79.177828 C 148.60583,78.452581 167.5,68.718169 167.5,68.718169 L 160.54888,70.679355 L 148.78544,78.524099 z "
       id="path2176"
       sodipodi:nodetypes="cssccc" />
    <path
       style="fill:none;fill-rule:evenodd;stroke:#000000;stroke-width:1;stroke-linecap:butt;stroke-linejoin:miter;stroke-miterlimit:10;stroke-dasharray:none;stroke-opacity:1"
       d="M 148.78544,71.986813 C 148.78544,71.986813 150.92425,70.025627 148.78544,68.71817 C 147.27307,67.79366 146.11193,70.025627 147.71604,71.333085 C 148.60583,72.058331 167.5,81.792743 167.5,81.792743 L 160.54888,79.831556 L 148.78544,71.986813 z "
       id="path2180"
       sodipodi:nodetypes="cssccc" />
    <path
       style="fill:#000000;fill-rule:evenodd;stroke:#000000;stroke-width:1;stroke-linecap:butt;stroke-linejoin:miter;stroke-opacity:1;fill-opacity:1;stroke-miterlimit:20;stroke-dasharray:none;stroke-dashoffset:4.7"
       d="M 45.055038,77.067645 C 45.055038,77.067645 51.296873,82.481174 45.055038,86.090194 C 40.641389,88.642149 37.252744,82.481174 41.93412,78.872155 C 44.530879,76.870232 99.671096,50 99.671096,50 L 79.385131,55.413529 L 45.055038,77.067645 z "
       id="path2182"
       sodipodi:nodetypes="cssccc" />
    <path
       style="fill:#000000;fill-rule:evenodd;stroke:#000000;stroke-width:1;stroke-linecap:butt;stroke-linejoin:miter;stroke-opacity:1;fill-opacity:1;stroke-miterlimit:20;stroke-dasharray:none;stroke-dashoffset:4.7"
       d="M 45.055038,59.022548 C 45.055038,59.022548 51.296873,53.609019 45.055038,50 C 40.641389,47.448048 37.252744,53.609019 41.93412,57.218038 C 44.530879,59.219962 99.671096,86.090194 99.671096,86.090194 L 79.385131,80.676665 L 45.055038,59.022548 z "
       id="path2184"
       sodipodi:nodetypes="cssccc" />
    <path
       sodipodi:type="arc"
       style="fill:#ffffff;fill-opacity:1;stroke:none;stroke-width:1.06102719;stroke-linecap:round;stroke-linejoin:round;stroke-miterlimit:20;stroke-dasharray:none;stroke-dashoffset:4.98682782;stroke-opacity:1"
       id="path2186"
       sodipodi:cx="53.81789"
       sodipodi:cy="41.461662"
       sodipodi:rx="3.8178914"
       sodipodi:ry="3.5383387"
       d="M 57.635782 41.461662 A 3.8178914 3.5383387 0 1 1  49.999999,41.461662 A 3.8178914 3.5383387 0 1 1  57.635782 41.461662 z"
       transform="matrix(0.9079493,0,0,0.97833,-4.8639157,13.436812)" />
    <path
       sodipodi:type="arc"
       style="fill:#ffffff;fill-opacity:1;stroke:none;stroke-width:1.06102719;stroke-linecap:round;stroke-linejoin:round;stroke-miterlimit:20;stroke-dasharray:none;stroke-dashoffset:4.98682782;stroke-opacity:1"
       id="path3159"
       sodipodi:cx="53.81789"
       sodipodi:cy="41.461662"
       sodipodi:rx="3.8178914"
       sodipodi:ry="3.5383387"
       d="M 57.635782 41.461662 A 3.8178914 3.5383387 0 1 1  49.999999,41.461662 A 3.8178914 3.5383387 0 1 1  57.635782 41.461662 z"
       transform="matrix(0.9079493,0,0,0.97833,-4.8639157,41.436812)" />
    <path
       style="fill:none;fill-rule:evenodd;stroke:#000000;stroke-width:1px;stroke-linecap:butt;stroke-linejoin:miter;stroke-opacity:1"
       d="M 156,74 L 164,70"
       id="path5099" />
    <path
       style="fill:none;fill-rule:evenodd;stroke:#000000;stroke-width:1px;stroke-linecap:butt;stroke-linejoin:miter;stroke-opacity:1"
       d="M 155,76 L 163,80"
       id="path5101"
       sodipodi:nodetypes="cc" />
  </g>
</svg>
