<?xml version="1.0" encoding="UTF-8" standalone="no"?>
<!-- Created with Inkscape (http://www.inkscape.org/) -->
<svg
   xmlns:dc="http://purl.org/dc/elements/1.1/"
   xmlns:cc="http://web.resource.org/cc/"
   xmlns:rdf="http://www.w3.org/1999/02/22-rdf-syntax-ns#"
   xmlns:svg="http://www.w3.org/2000/svg"
   xmlns="http://www.w3.org/2000/svg"
   xmlns:sodipodi="http://sodipodi.sourceforge.net/DTD/sodipodi-0.dtd"
   xmlns:inkscape="http://www.inkscape.org/namespaces/inkscape"
   width="500"
   height="150"
   id="svg2"
   sodipodi:version="0.32"
   inkscape:version="0.45.1"
   sodipodi:docbase="D:\Grigory\Doc`и\Оригами\Вики"
   sodipodi:docname="orisymbol_zoom.svg"
   inkscape:output_extension="org.inkscape.output.svg.inkscape"
   version="1.0">
  <defs
     id="defs4" />
  <sodipodi:namedview
     id="base"
     pagecolor="#ffffff"
     bordercolor="#666666"
     borderopacity="1.0"
     gridtolerance="10000"
     guidetolerance="10"
     objecttolerance="10"
     inkscape:pageopacity="0.0"
     inkscape:pageshadow="2"
     inkscape:zoom="8.4505689"
     inkscape:cx="394.1476"
     inkscape:cy="106.83793"
     inkscape:document-units="px"
     inkscape:current-layer="layer1"
     showgrid="true"
     inkscape:window-width="1024"
     inkscape:window-height="712"
     inkscape:window-x="-4"
     inkscape:window-y="-4"
     width="500px"
     height="150px"
     showborder="true"
     inkscape:grid-points="true"
     inkscape:grid-bbox="true" />
  <metadata
     id="metadata7">
    <rdf:RDF>
      <cc:Work
         rdf:about="">
        <dc:format>image/svg+xml</dc:format>
        <dc:type
           rdf:resource="http://purl.org/dc/dcmitype/StillImage" />
      </cc:Work>
    </rdf:RDF>
  </metadata>
  <g
     inkscape:label="Layer 1"
     inkscape:groupmode="layer"
     id="layer1">
    <path
       style="fill:#ffffc9;fill-opacity:1;fill-rule:evenodd;stroke:#000000;stroke-width:1;stroke-linecap:butt;stroke-linejoin:miter;stroke-miterlimit:2.29999995;stroke-dasharray:none;stroke-opacity:1"
       d="M 405,20 L 345,80 L 405,140 L 465,80 L 405,20"
       id="path2171"
       sodipodi:nodetypes="ccccc" />
    <path
       style="fill:#79b6ff;fill-opacity:1;fill-rule:evenodd;stroke:#000000;stroke-width:1;stroke-linecap:butt;stroke-linejoin:miter;stroke-miterlimit:2.29999995;stroke-dasharray:none;stroke-opacity:1"
       d="M 400,127 L 345,80 L 405,20 L 400,127 z "
       id="path2177"
       sodipodi:nodetypes="cccc" />
    <path
       style="fill:#ffffc9;fill-opacity:1;fill-rule:evenodd;stroke:#000000;stroke-width:1;stroke-linecap:butt;stroke-linejoin:miter;stroke-miterlimit:2.29999995;stroke-dasharray:none;stroke-opacity:1"
       d="M 345,70 L 400,127 L 405,20 L 345,70 z "
       id="path2179"
       sodipodi:nodetypes="cccc" />
    <path
       style="fill:#79b6ff;fill-opacity:1;fill-rule:evenodd;stroke:#000000;stroke-width:1;stroke-linecap:butt;stroke-linejoin:miter;stroke-miterlimit:2.29999995;stroke-dasharray:none;stroke-opacity:1"
       d="M 410,127 L 465,80 L 405,20 L 410,127 z "
       id="path2175"
       sodipodi:nodetypes="cccc" />
    <path
       style="fill:#ffffc9;fill-opacity:1;fill-rule:evenodd;stroke:#000000;stroke-width:1;stroke-linecap:butt;stroke-linejoin:miter;stroke-miterlimit:2.29999995;stroke-dasharray:none;stroke-opacity:1"
       d="M 465,70 L 410,127 L 405,20 L 465,70 z "
       id="path2181"
       sodipodi:nodetypes="cccc" />
    <path
       style="fill:#79b6ff;fill-opacity:1;fill-rule:evenodd;stroke:#000000;stroke-width:1;stroke-linecap:butt;stroke-linejoin:miter;stroke-miterlimit:2.29999995;stroke-dasharray:none;stroke-opacity:1"
       d="M 405,120 L 465,70 L 405,20 L 345,70 L 405,120"
       id="path2173" />
    <path
       style="fill:#ffffc9;fill-opacity:1;fill-rule:evenodd;stroke:#000000;stroke-width:0.99999994;stroke-linecap:butt;stroke-linejoin:miter;stroke-miterlimit:2.29999995;stroke-dasharray:none;stroke-opacity:1"
       d="M 209.2875,45 L 175,79.287498 L 209.2875,113.575 L 243.575,79.287498 L 209.2875,45"
       id="path6062"
       sodipodi:nodetypes="ccccc" />
    <path
       style="fill:#79b6ff;fill-opacity:1;fill-rule:evenodd;stroke:#000000;stroke-width:0.99999994;stroke-linecap:butt;stroke-linejoin:miter;stroke-miterlimit:2.29999995;stroke-dasharray:none;stroke-opacity:1"
       d="M 206.43021,106.14604 L 175,79.287498 L 209.2875,45 L 206.43021,106.14604 z "
       id="path6064"
       sodipodi:nodetypes="cccc" />
    <path
       style="fill:#ffffc9;fill-opacity:1;fill-rule:evenodd;stroke:#000000;stroke-width:0.99999994;stroke-linecap:butt;stroke-linejoin:miter;stroke-miterlimit:2.29999995;stroke-dasharray:none;stroke-opacity:1"
       d="M 175,73.572915 L 206.43021,106.14604 L 209.2875,45 L 175,73.572915 z "
       id="path6066"
       sodipodi:nodetypes="cccc" />
    <path
       style="fill:#79b6ff;fill-opacity:1;fill-rule:evenodd;stroke:#000000;stroke-width:0.99999994;stroke-linecap:butt;stroke-linejoin:miter;stroke-miterlimit:2.29999995;stroke-dasharray:none;stroke-opacity:1"
       d="M 212.14479,106.14604 L 243.575,79.287498 L 209.2875,45 L 212.14479,106.14604 z "
       id="path6068"
       sodipodi:nodetypes="cccc" />
    <path
       style="fill:#ffffc9;fill-opacity:1;fill-rule:evenodd;stroke:#000000;stroke-width:0.99999994;stroke-linecap:butt;stroke-linejoin:miter;stroke-miterlimit:2.29999995;stroke-dasharray:none;stroke-opacity:1"
       d="M 243.575,73.572915 L 212.14479,106.14604 L 209.2875,45 L 243.575,73.572915 z "
       id="path6070"
       sodipodi:nodetypes="cccc" />
    <path
       style="fill:#79b6ff;fill-opacity:1;fill-rule:evenodd;stroke:#000000;stroke-width:0.99999994;stroke-linecap:butt;stroke-linejoin:miter;stroke-miterlimit:2.29999995;stroke-dasharray:none;stroke-opacity:1"
       d="M 209.2875,102.14583 L 243.575,73.572915 L 209.2875,45 L 175,73.572915 L 209.2875,102.14583"
       id="path6072" />
    <path
       style="fill:none;fill-rule:evenodd;stroke:#000000;stroke-width:1;stroke-linecap:butt;stroke-linejoin:miter;stroke-miterlimit:10;stroke-dasharray:none;stroke-opacity:1"
       d="M 265,81 C 265,81 280,75 290,74 C 300,73 311,74 311,74 L 310,67 L 325,78 L 310,90 L 311,82 C 311,82 301,79 291,79 C 281,79 265,81 265,81 z "
       id="path6074"
       sodipodi:nodetypes="czccccczc" />
    <path
       style="fill:none;fill-rule:evenodd;stroke:#000000;stroke-width:1;stroke-linecap:butt;stroke-linejoin:miter;stroke-miterlimit:10;stroke-dasharray:none;stroke-opacity:1"
       d="M 24.749999,82.587904 C 24.749999,82.587904 47.374999,72.776939 62.458332,71.141779 C 77.541665,69.506618 94.133331,71.141779 94.133331,71.141779 L 92.624998,59.695654 L 115.25,77.682422 L 92.624998,97.30435 L 94.133331,84.223064 C 94.133331,84.223064 79.049998,79.317582 63.966665,79.317582 C 48.883332,79.317582 24.749999,82.587904 24.749999,82.587904 z "
       id="path7045"
       sodipodi:nodetypes="czccccczc" />
  </g>
</svg>
