<?xml version="1.0" encoding="UTF-8" standalone="no"?>
<!-- Created with Inkscape (http://www.inkscape.org/) -->
<svg
   xmlns:dc="http://purl.org/dc/elements/1.1/"
   xmlns:cc="http://web.resource.org/cc/"
   xmlns:rdf="http://www.w3.org/1999/02/22-rdf-syntax-ns#"
   xmlns:svg="http://www.w3.org/2000/svg"
   xmlns="http://www.w3.org/2000/svg"
   xmlns:sodipodi="http://sodipodi.sourceforge.net/DTD/sodipodi-0.dtd"
   xmlns:inkscape="http://www.inkscape.org/namespaces/inkscape"
   width="500"
   height="150"
   id="svg2"
   sodipodi:version="0.32"
   inkscape:version="0.45.1"
   sodipodi:docbase="D:\Grigory\Doc`и\Оригами\Вики"
   sodipodi:docname="orisymbol_roll.svg"
   inkscape:output_extension="org.inkscape.output.svg.inkscape"
   version="1.0">
  <defs
     id="defs4" />
  <sodipodi:namedview
     id="base"
     pagecolor="#ffffff"
     bordercolor="#666666"
     borderopacity="1.0"
     gridtolerance="1.7"
     guidetolerance="10"
     objecttolerance="10"
     inkscape:pageopacity="0.0"
     inkscape:pageshadow="2"
     inkscape:zoom="128"
     inkscape:cx="182.35903"
     inkscape:cy="134.70541"
     inkscape:document-units="px"
     inkscape:current-layer="layer1"
     showgrid="true"
     inkscape:window-width="1024"
     inkscape:window-height="712"
     inkscape:window-x="-4"
     inkscape:window-y="-4"
     width="500px"
     height="150px"
     showborder="true"
     inkscape:grid-points="true"
     inkscape:grid-bbox="true" />
  <metadata
     id="metadata7">
    <rdf:RDF>
      <cc:Work
         rdf:about="">
        <dc:format>image/svg+xml</dc:format>
        <dc:type
           rdf:resource="http://purl.org/dc/dcmitype/StillImage" />
      </cc:Work>
    </rdf:RDF>
  </metadata>
  <g
     inkscape:label="Layer 1"
     inkscape:groupmode="layer"
     id="layer1">
    <path
       style="fill:#ffffc9;fill-opacity:1;fill-rule:evenodd;stroke:#000000;stroke-width:1px;stroke-linecap:butt;stroke-linejoin:round;stroke-opacity:1"
       d="M 418,135 C 432,135 435,136 435,134 C 435,132 435,130 435,130 L 420,133 C 420,133 404,135 418,135 z "
       id="path4171"
       sodipodi:nodetypes="czccz" />
    <path
       style="fill:#ffffc9;fill-opacity:1;fill-rule:evenodd;stroke:#000000;stroke-width:1px;stroke-linecap:butt;stroke-linejoin:miter;stroke-opacity:1"
       d="M 180,135 L 300,135 L 300,15 L 180,15 L 180,135 z "
       id="path2167" />
    <path
       style="fill:none;fill-rule:evenodd;stroke:#000000;stroke-width:1;stroke-linecap:butt;stroke-linejoin:miter;stroke-miterlimit:4;stroke-dasharray:8, 4;stroke-dashoffset:3.2;stroke-opacity:1"
       d="M 284.5,15.5 L 284.5,135.5"
       id="path2170" />
    <path
       style="fill:none;fill-rule:evenodd;stroke:#000000;stroke-width:1;stroke-linecap:butt;stroke-linejoin:miter;stroke-miterlimit:4;stroke-dasharray:8, 4;stroke-dashoffset:3.2;stroke-opacity:1"
       d="M 269.5,15.5 L 269.5,135.5"
       id="path2172" />
    <path
       style="fill:none;fill-rule:evenodd;stroke:#000000;stroke-width:1;stroke-linecap:butt;stroke-linejoin:miter;stroke-miterlimit:4;stroke-dasharray:8, 4;stroke-dashoffset:3.2;stroke-opacity:1"
       d="M 255,14.5 L 255,134.5"
       id="path2174" />
    <g
       id="g2198"
       transform="matrix(-1,0,0,1,363,-135)">
      <path
         sodipodi:nodetypes="cccc"
         id="path10041"
         d="M 119,221 L 116.0376,219.90657 L 118.29656,217.71766 L 119,221 z "
         style="fill:#000000;fill-opacity:1;fill-rule:evenodd;stroke:#000000;stroke-width:1px;stroke-linecap:butt;stroke-linejoin:miter;stroke-opacity:1" />
      <path
         sodipodi:nodetypes="csscssscsssszc"
         d="M 68,215 C 71,215 80,216 80,220 C 80,224 77,225 75,225 C 73,225 70,224 70,220 C 71.669621,214.66279 80,215 83,215 C 86,215 95,216 95,220 C 95,224 92,225 90,225 C 88,225 85,224 85,220 C 86.669621,214.66279 95,215 98,215 C 101,215 110,216 110,220 C 110,224 107,225 105,225 C 103,225 100,224 100,220 C 100,216 109,214 113,216 C 117,218 117,219 117,219"
         style="fill:none;fill-rule:evenodd;stroke:#000000;stroke-width:1px;stroke-linecap:butt;stroke-linejoin:miter;stroke-opacity:1"
         id="path2178" />
    </g>
    <g
       id="g4142"
       transform="matrix(1.372549,0,0,2.4503134,-46.833332,-464.82051)">
      <path
         sodipodi:nodetypes="cccc"
         id="path4144"
         d="M 119.36429,220.71483 L 114.99286,219.4905 L 118.63572,217.85805 L 119.36429,220.71483 z "
         style="fill:#000000;fill-opacity:1;fill-rule:evenodd;stroke:#000000;stroke-width:0.54528713px;stroke-linecap:butt;stroke-linejoin:miter;stroke-opacity:1" />
      <path
         sodipodi:nodetypes="csscssscsssszc"
         d="M 68,215 C 71,215 80,216 80,220 C 80,224 77,225 75,225 C 73,225 70,224 70,220 C 71.669621,214.66279 80,215 83,215 C 86,215 95,216 95,220 C 95,224 92,225 90,225 C 88,225 85,224 85,220 C 86.669621,214.66279 95,215 98,215 C 101,215 110,216 110,220 C 110,224 107,225 105,225 C 103,225 100,224 100,220 C 100,216 109,214 113,216 C 117,218 117,219 117,219"
         style="fill:none;fill-rule:evenodd;stroke:#000000;stroke-width:0.54528713px;stroke-linecap:butt;stroke-linejoin:miter;stroke-opacity:1"
         id="path4146" />
    </g>
    <path
       style="fill:#ffffc9;fill-opacity:1;fill-rule:evenodd;stroke:#000000;stroke-width:1px;stroke-linecap:butt;stroke-linejoin:round;stroke-opacity:1"
       d="M 420,15 L 420,135 L 360,135 L 360,15 L 420,15 z "
       id="path4167"
       sodipodi:nodetypes="ccccc" />
    <path
       style="fill:#79b6ff;fill-opacity:1;fill-rule:evenodd;stroke:#000000;stroke-width:1px;stroke-linecap:butt;stroke-linejoin:round;stroke-opacity:1"
       d="M 420,15 C 420,15 423,14 428,14 C 432,14 435,15 435,15 L 435,135 C 435,135 435,134 428,134 C 420,134 420,135 420,135 L 420,15 z "
       id="path4169"
       sodipodi:nodetypes="czccscc" />
  </g>
</svg>
