<?xml version="1.0" encoding="UTF-8" standalone="no"?>
<!-- Created with Inkscape (http://www.inkscape.org/) -->
<svg
   xmlns:dc="http://purl.org/dc/elements/1.1/"
   xmlns:cc="http://web.resource.org/cc/"
   xmlns:rdf="http://www.w3.org/1999/02/22-rdf-syntax-ns#"
   xmlns:svg="http://www.w3.org/2000/svg"
   xmlns="http://www.w3.org/2000/svg"
   xmlns:sodipodi="http://sodipodi.sourceforge.net/DTD/sodipodi-0.dtd"
   xmlns:inkscape="http://www.inkscape.org/namespaces/inkscape"
   width="500"
   height="150"
   id="svg2"
   sodipodi:version="0.32"
   inkscape:version="0.45.1"
   sodipodi:docbase="D:\Grigory\Doc`и\Оригами\Вики"
   sodipodi:docname="orisymbol_inflate.svg"
   inkscape:output_extension="org.inkscape.output.svg.inkscape"
   version="1.0">
  <defs
     id="defs4" />
  <sodipodi:namedview
     id="base"
     pagecolor="#ffffff"
     bordercolor="#666666"
     borderopacity="1.0"
     gridtolerance="10000"
     guidetolerance="10"
     objecttolerance="10"
     inkscape:pageopacity="0.0"
     inkscape:pageshadow="2"
     inkscape:zoom="22.4"
     inkscape:cx="256.07485"
     inkscape:cy="131.46778"
     inkscape:document-units="px"
     inkscape:current-layer="layer1"
     showgrid="true"
     inkscape:window-width="1024"
     inkscape:window-height="712"
     inkscape:window-x="-4"
     inkscape:window-y="-4"
     width="500px"
     height="150px"
     showborder="true"
     inkscape:grid-points="true"
     inkscape:grid-bbox="true" />
  <metadata
     id="metadata7">
    <rdf:RDF>
      <cc:Work
         rdf:about="">
        <dc:format>image/svg+xml</dc:format>
        <dc:type
           rdf:resource="http://purl.org/dc/dcmitype/StillImage" />
      </cc:Work>
    </rdf:RDF>
  </metadata>
  <g
     inkscape:label="Layer 1"
     inkscape:groupmode="layer"
     id="layer1">
    <path
       style="fill:#79b6ff;fill-opacity:1;fill-rule:evenodd;stroke:#000000;stroke-width:1px;stroke-linecap:butt;stroke-linejoin:miter;stroke-opacity:1"
       d="M 255,10 L 228,35 L 228,85 L 255,110"
       id="path3152" />
    <path
       style="fill:#79b6ff;fill-opacity:1;fill-rule:evenodd;stroke:#000000;stroke-width:1px;stroke-linecap:butt;stroke-linejoin:round;stroke-opacity:1"
       d="M 230,35 L 255,10 L 280,35 L 280,85 L 255,110 L 230,85 L 230,35 z "
       id="path2179" />
    <path
       style="fill:none;fill-rule:evenodd;stroke:#000000;stroke-width:1px;stroke-linecap:butt;stroke-linejoin:round;stroke-opacity:1"
       d="M 230,35 L 230,85 L 255,110 L 253,60 L 230,35 z "
       id="path2173"
       sodipodi:nodetypes="ccccc" />
    <path
       style="fill:none;fill-rule:evenodd;stroke:#000000;stroke-width:1px;stroke-linecap:butt;stroke-linejoin:round;stroke-opacity:1"
       d="M 255,110 L 257,60 L 280,35 L 280,85 L 255,110 z "
       id="path2177"
       sodipodi:nodetypes="ccccc" />
    <path
       style="fill:none;fill-rule:evenodd;stroke:#000000;stroke-width:1px;stroke-linecap:butt;stroke-linejoin:miter;stroke-opacity:1"
       d="M 253,60 L 230,85"
       id="path3154" />
    <path
       style="fill:none;fill-rule:evenodd;stroke:#000000;stroke-width:1px;stroke-linecap:butt;stroke-linejoin:miter;stroke-opacity:1"
       d="M 257,60 L 280,85"
       id="path3156" />
    <path
       style="fill:none;fill-rule:evenodd;stroke:#000000;stroke-width:1px;stroke-linecap:round;stroke-linejoin:miter;stroke-opacity:1"
       d="M 231,34 L 253,58 L 253,60"
       id="path3158"
       sodipodi:nodetypes="cc" />
    <path
       style="fill:none;fill-rule:evenodd;stroke:#000000;stroke-width:1px;stroke-linecap:round;stroke-linejoin:miter;stroke-opacity:1"
       d="M 279,34 L 257,58 L 257,60"
       id="path3160"
       sodipodi:nodetypes="cc" />
    <path
       style="fill:#79b6ff;fill-opacity:1;fill-rule:evenodd;stroke:#000000;stroke-width:1px;stroke-linecap:butt;stroke-linejoin:round;stroke-opacity:1"
       d="M 390,65 L 440,65 L 440,115 L 390,115 L 390,65 z "
       id="path5102"
       sodipodi:nodetypes="ccccc" />
    <path
       style="fill:none;fill-rule:evenodd;stroke:#000000;stroke-width:1px;stroke-linecap:butt;stroke-linejoin:round;stroke-opacity:1"
       d="M 390,65 L 390,115 L 414,115 L 413,90 L 390,65 z "
       id="path5104"
       sodipodi:nodetypes="ccccc" />
    <path
       style="fill:none;fill-rule:evenodd;stroke:#000000;stroke-width:1px;stroke-linecap:butt;stroke-linejoin:round;stroke-opacity:1"
       d="M 416,115 L 417,90 L 440,65 L 440,115 L 416,115 z "
       id="path5106"
       sodipodi:nodetypes="ccccc" />
    <path
       style="fill:none;fill-rule:evenodd;stroke:#000000;stroke-width:1px;stroke-linecap:butt;stroke-linejoin:round;stroke-opacity:1"
       d="M 413,90 L 390,115"
       id="path5108" />
    <path
       style="fill:none;fill-rule:evenodd;stroke:#000000;stroke-width:1px;stroke-linecap:butt;stroke-linejoin:round;stroke-opacity:1"
       d="M 417,90 L 440,115"
       id="path5110" />
    <path
       style="fill:none;fill-rule:evenodd;stroke:#000000;stroke-width:1px;stroke-linecap:round;stroke-linejoin:round;stroke-opacity:1"
       d="M 391.32743,64.945638 L 394,68 L 413,88"
       id="path5112"
       sodipodi:nodetypes="ccc" />
    <path
       style="fill:none;fill-rule:evenodd;stroke:#000000;stroke-width:1px;stroke-linecap:round;stroke-linejoin:round;stroke-opacity:1"
       d="M 417,88 L 439,65"
       id="path5114"
       sodipodi:nodetypes="cc" />
    <path
       style="fill:none;fill-rule:evenodd;stroke:#000000;stroke-width:1px;stroke-linecap:butt;stroke-linejoin:round;stroke-opacity:1"
       d="M 413,88 L 413,90"
       id="path5120" />
    <path
       style="fill:none;fill-rule:evenodd;stroke:#000000;stroke-width:1px;stroke-linecap:butt;stroke-linejoin:round;stroke-opacity:1"
       d="M 417,88 L 417,90"
       id="path5122" />
    <path
       style="fill:#79b6ff;fill-rule:evenodd;stroke:#000000;stroke-width:1px;stroke-linecap:butt;stroke-linejoin:round;stroke-opacity:1;fill-opacity:1"
       d="M 440,65 L 415,50 L 365,50 L 365,100 L 390,115 L 390,65 L 440,65 z "
       id="path5127" />
    <path
       style="fill:none;fill-rule:evenodd;stroke:#000000;stroke-width:1px;stroke-linecap:round;stroke-linejoin:round;stroke-opacity:1"
       d="M 367,52 L 388,64"
       id="path5129"
       sodipodi:nodetypes="cc" />
    <path
       style="fill:none;fill-rule:evenodd;stroke:#000000;stroke-width:1px;stroke-linecap:butt;stroke-linejoin:miter;stroke-opacity:1"
       d="M 255,115 L 247,123 L 252,122 L 252,132 C 252,132 250,132 249,133 C 248,134 249,137 249,137 C 249,137 247,139 248,141 C 249,143 252,143 252,143 C 252,143 252,145 255,145 C 258,145 258,143 258,143 C 258,143 261,143 262,141 C 262.89443,139.21115 261,137 261,137 C 261,137 262,134 261,133 C 260,132 258,132 258,132 L 258,122 L 263,123 L 255,115 z "
       id="path7071"
       sodipodi:nodetypes="ccccscsczcscscccc" />
    <path
       style="fill:none;fill-rule:evenodd;stroke:#000000;stroke-width:1px;stroke-linecap:butt;stroke-linejoin:miter;stroke-opacity:1"
       d="M 146.16666,77.000005 L 118.87777,54.125005 L 122.28888,68.42188 L 88.177772,68.42188 C 88.177772,68.42188 88.177772,62.70313 84.766661,59.843755 C 81.35555,56.98438 71.122217,59.843755 71.122217,59.843755 C 71.122217,59.843755 64.299995,54.125005 57.477772,56.98438 C 50.65555,59.843755 50.65555,68.42188 50.65555,68.42188 C 50.65555,68.42188 43.833328,68.42188 43.833328,77.000005 C 43.833328,85.57813 50.65555,85.57813 50.65555,85.57813 C 50.65555,85.57813 50.65555,94.156255 57.477772,97.01563 C 63.579738,99.573141 71.122217,94.156255 71.122217,94.156255 C 71.122217,94.156255 81.35555,97.01563 84.766661,94.156255 C 88.177772,91.29688 88.177772,85.57813 88.177772,85.57813 L 122.28888,85.57813 L 118.87777,99.875005 L 146.16666,77.000005 z "
       id="path2178"
       sodipodi:nodetypes="ccccscsczcscscccc" />
  </g>
</svg>
